<svg width="366" height="132" viewBox="0 0 366 132" fill="none" xmlns="http://www.w3.org/2000/svg">
<path d="M28.1199 90.9248C29.4561 92.4009 30.7513 93.8605 32.0835 95.2913C36.9617 100.497 42.566 104.972 48.723 108.576C53.3461 111.286 58.2171 113.55 63.2698 115.335C67.1637 116.731 71.1653 117.805 75.2345 118.546C79.0608 119.238 82.9239 119.708 86.8045 119.953C87.5816 120.006 87.9352 119.891 87.853 119.077C87.4665 115.278 87.1746 111.47 86.159 107.754C85.9699 107.067 85.8959 106.356 85.6738 105.677C85.4888 105.102 85.7931 104.703 86.1179 104.337C89.2649 100.822 92.1119 97.0492 94.6289 93.0587C94.7358 92.8901 94.7358 92.5941 95.04 92.6476C95.3443 92.701 95.295 92.9765 95.3649 93.1615C96.4447 95.9462 97.359 98.7923 98.1032 101.685C99.088 105.607 99.8119 109.59 100.27 113.608C100.961 119.365 100.998 125.141 100.915 130.922C100.915 131.745 100.611 131.926 99.7848 131.942C94.1026 132.057 88.4259 131.93 82.7546 131.56C79.9711 131.383 77.2245 130.935 74.4739 130.54C70.065 129.9 65.7068 128.949 61.4319 127.695C57.7402 126.619 54.1248 125.296 50.6103 123.735C39.9201 119.015 30.8376 112.387 22.9146 104.316C22.6862 104.125 22.5284 103.863 22.4665 103.571C22.4047 103.28 22.4423 102.976 22.5734 102.709C23.9974 98.5944 25.8568 94.6441 28.1199 90.9248Z" fill="white"/>
<path d="M87.1655 119.953C87.0956 119.953 87.0422 119.953 86.9682 119.953C83.0876 119.707 79.2245 119.238 75.3982 118.546C71.3294 117.803 67.3279 116.729 63.4335 115.335C58.3807 113.55 53.5098 111.286 48.8867 108.576C42.7253 104.973 37.1168 100.498 32.2348 95.2913C30.9026 93.8605 29.6075 92.4132 28.2712 90.9248C26.0158 94.6424 24.1633 98.5899 22.7452 102.7C22.6142 102.968 22.5766 103.272 22.6384 103.563C22.7003 103.855 22.858 104.117 23.0865 104.308C31.0095 112.379 40.1085 119.007 50.7821 123.727C54.297 125.287 57.9123 126.61 61.6038 127.686C65.8801 128.94 70.2397 129.889 74.6499 130.528C77.4005 130.939 80.143 131.37 82.9265 131.547C88.5977 131.909 94.2745 132.037 99.9567 131.93C100.384 131.926 88.066 120.697 87.1655 119.953Z" fill="white"/>
<path d="M49.0314 35.2499C39.3856 35.439 31.4749 27.4379 31.4009 17.8908C31.3228 7.75163 39.6077 0.19043 49.1424 0.19043C53.7896 0.209832 58.2414 2.06199 61.531 5.34459C64.8205 8.62719 66.682 13.0751 66.7112 17.7222C66.7811 27.1501 58.8211 35.4884 49.0314 35.2499Z" fill="white"/>
<path d="M57.9018 44.7602C59.9083 43.8187 61.923 43.3664 63.8883 42.8401C66.4169 42.1617 69.0072 41.6848 71.5852 41.1626C75.5322 40.3947 79.5246 39.8824 83.5376 39.629C88.8826 39.2425 94.2688 39.1397 99.6468 39.2672C100.654 39.2918 100.925 39.5673 100.946 40.5006C101.112 45.6815 100.961 50.8677 100.494 56.0301C100.046 60.7992 99.1919 65.5214 97.9404 70.1452C96.916 73.7682 95.6692 77.3246 94.2071 80.7942C90.8932 88.6925 86.058 95.6987 80.1907 102.142C77.4487 105.063 74.5498 107.832 71.5071 110.439C70.6313 111.208 69.8624 111.573 68.6043 111.154C64.3735 109.825 60.25 108.175 56.2695 106.22C58.0334 104.872 59.7685 103.597 61.4378 102.257C67.2623 97.6164 72.3342 92.1034 76.4739 85.9131C79.4886 81.4261 81.9566 76.595 83.8254 71.5226C85.7439 66.4716 86.9774 61.1865 87.4929 55.8081C87.5916 54.6404 87.7067 53.4768 87.8629 52.3132C87.9657 51.5485 87.6533 51.3182 86.8433 51.3676C82.8656 51.5631 78.9062 52.0344 74.9937 52.7778C74.5383 52.809 74.0875 52.8889 73.6492 53.0163C72.243 53.6372 71.2151 53.1931 70.0803 52.3297C66.2449 49.4628 62.1704 46.9303 57.9018 44.7602Z" fill="white"/>
<path d="M87.6456 51.5281C87.8306 51.672 87.8964 51.9392 87.8429 52.3175C87.6867 53.4811 87.5716 54.6446 87.4729 55.8123C86.9574 61.1907 85.7239 66.4759 83.8054 71.5268C81.9366 76.5993 79.4686 81.4303 76.4539 85.9174C72.3216 92.0997 67.2596 97.607 61.4466 102.244C59.7773 103.585 58.0422 104.859 56.2783 106.208C60.2588 108.163 64.3823 109.813 68.6131 111.142C69.8794 111.553 70.6401 111.195 71.5159 110.427C74.5512 107.819 77.4419 105.048 80.1748 102.125C86.0421 95.6865 90.865 88.6803 94.1912 80.782C95.6539 77.3127 96.9008 73.7562 97.9246 70.133C99.1756 65.5092 100.03 60.787 100.478 56.0179C100.94 50.9913 101.098 45.9412 100.951 40.8955C96.7561 44.7306 92.3113 48.2826 87.6456 51.5281Z" fill="white"/>
<path d="M5.93764 78.6152C4.95086 76.8266 4.42047 74.9147 3.84485 73.0481C3.14588 70.7744 2.61137 68.4554 2.07686 66.1447C1.46567 63.5322 1.02344 60.8829 0.752934 58.2135C0.0913468 52.2886 -0.131286 46.3228 0.0868575 40.3651C0.11975 39.5428 0.411673 39.2837 1.32033 39.2755C8.18344 39.1179 15.0497 39.3926 21.8783 40.0978C28.2263 40.8001 34.4985 42.0716 40.6189 43.8969C43.8389 44.8451 46.9971 45.9917 50.0755 47.3301C51.6626 48.0332 53.2291 48.8678 54.7915 49.6244C58.9606 51.6432 62.7351 54.1471 66.4355 56.7909C70.728 59.8458 74.5477 63.3694 78.2522 67.0246C78.4169 67.1578 78.5349 67.34 78.5889 67.5449C78.6429 67.7497 78.6301 67.9665 78.5523 68.1635C77.5176 71.3128 76.2035 74.3634 74.6258 77.2789C74.0954 78.2862 73.6637 79.3552 72.792 80.2886C70.7362 77.7846 68.6105 75.404 66.3409 73.1344C60.5143 67.2567 53.7096 62.4373 46.2312 58.8919C40.2275 56.0796 33.8815 54.0657 27.3549 52.9013C22.9845 52.1274 18.5717 51.6152 14.1403 51.3677C13.2727 51.3142 13.0959 51.565 13.1658 52.2969C13.4906 55.8246 13.8442 59.3483 14.6994 62.8143C14.9379 63.7764 15.1106 64.755 15.4313 65.6924C15.4863 65.8213 15.5008 65.9639 15.4729 66.1012C15.445 66.2385 15.376 66.3641 15.2751 66.4613C11.9305 70.1698 8.91105 74.159 6.25012 78.3849C6.19667 78.4754 6.07744 78.5165 5.93764 78.6152Z" fill="white"/>
<path d="M77.9261 67.0329C74.2257 63.39 70.406 59.854 66.1135 56.7991C62.4131 54.1636 58.6387 51.6514 54.4695 49.6326C52.9071 48.8761 51.3406 48.0415 49.7536 47.3384C46.6752 46 43.5169 44.8534 40.2969 43.9052C34.1764 42.0802 27.9043 40.8088 21.5563 40.1061C14.7277 39.4009 7.86148 39.1263 0.998373 39.2838C0.81878 39.2819 0.639523 39.2998 0.463867 39.3372C1.6984 40.2972 2.80394 41.4124 3.75314 42.6553C1.2204 39.329 3.69146 42.2112 4.57545 42.976C5.45944 43.7407 6.438 44.5384 7.38778 45.299C9.44357 46.9437 11.5364 48.5636 13.4606 50.3727C13.8183 50.7099 14.1637 51.0758 14.5132 51.4294C18.7265 51.68 22.9219 52.1742 27.0782 52.9096C33.5994 54.0785 39.9397 56.0952 45.938 58.9084C53.4159 62.4548 60.2204 67.2741 66.0478 73.1509C68.3132 75.4205 70.4348 77.8011 72.4988 80.3051C73.3705 79.3717 73.7981 78.3027 74.3326 77.2954C75.9086 74.3791 77.2226 71.3287 78.2592 68.18C78.3346 67.9784 78.343 67.7579 78.283 67.5512C78.2229 67.3445 78.0978 67.1627 77.9261 67.0329Z" fill="white"/>
<path d="M42.9906 126.614C40.5688 127.436 38.291 128.119 35.9721 128.67C31.6681 129.705 27.3081 130.492 22.9137 131.026C16.7057 131.724 10.4611 132.046 4.2142 131.988C3.17808 131.988 2.15841 131.902 1.10584 131.926C0.369869 131.926 0.0738351 131.704 0.0615004 131.013C-0.000173386 127.901 -0.0412892 124.772 0.0943931 121.656C0.22863 118.039 0.544248 114.431 1.04006 110.846C1.46205 107.858 2.05509 104.897 2.81626 101.977C3.40011 99.786 3.86883 97.5534 4.67059 95.4277C5.87155 92.2044 7.26797 89.0573 8.85207 86.004C12.2885 79.4733 16.6277 73.4592 21.7419 68.1391C24.4185 65.3391 27.3213 62.7447 30.2611 60.1832C30.9971 59.5418 31.7043 59.9077 32.3457 60.1092C36.3382 61.3285 40.2356 62.8401 44.0061 64.6319C44.7709 65.002 44.6845 65.224 44.076 65.6352C36.815 70.5485 30.5078 76.3458 25.4588 83.241C22.1349 87.7886 19.4498 92.7702 17.4782 98.0468C14.9824 104.646 13.7202 111.446 13.2021 118.391C13.0829 119.982 13.0829 119.982 14.7933 119.875C19.4881 119.615 24.1516 118.95 28.7316 117.885C28.9099 117.828 29.0997 117.816 29.2836 117.852C29.4675 117.887 29.6396 117.968 29.7841 118.087C33.7685 121.112 37.9911 123.81 42.4108 126.154C42.6159 126.292 42.8097 126.446 42.9906 126.614Z" fill="white"/>
<path d="M10.533 124.188C13.2549 122.72 15.8534 121.15 18.4437 119.583C17.3336 119.69 16.2152 119.781 15.101 119.855C13.3864 119.962 13.3864 119.962 13.5057 118.37C14.0237 111.426 15.2901 104.625 17.7817 98.0469C19.7542 92.772 22.4393 87.7919 25.7623 83.2452C30.836 76.3541 37.1185 70.5568 44.4042 65.6435C45.0128 65.2323 45.0991 65.0103 44.3302 64.6402C40.56 62.8477 36.6626 61.3361 32.6698 60.1175C32.0284 59.916 31.3253 59.5501 30.5893 60.1915C27.6454 62.753 24.7468 65.3474 22.066 68.1474C16.9544 73.4687 12.6166 79.4826 9.1803 86.0123C7.58723 89.0619 6.18255 92.2063 4.97415 95.4278C4.17239 97.5535 3.70367 99.7861 3.11982 101.978C2.35803 104.897 1.76634 107.858 1.34773 110.846C0.85265 114.431 0.539768 118.039 0.410287 121.656C0.291051 124.419 0.31572 127.182 0.365059 129.945C3.62966 127.918 7.03405 126.071 10.533 124.188Z" fill="white"/>
<path d="M118.039 101.677V40.3813H127.673C133.264 40.3813 137.354 40.7432 139.941 41.4668C143.612 42.4371 146.532 44.2421 148.703 46.8818C150.865 49.5056 152.019 52.8157 151.956 56.2151C151.986 58.4214 151.478 60.6019 150.475 62.5675C149.489 64.4698 147.885 66.2514 145.665 67.9125C149.387 69.6641 152.109 71.8569 153.83 74.4911C155.552 77.1252 156.412 80.2295 156.412 83.8038C156.446 87.1335 155.519 90.4023 153.744 93.2193C152.089 95.94 149.705 98.1422 146.861 99.5758C144.054 100.977 140.176 101.678 135.225 101.681L118.039 101.677ZM129.704 51.5155V64.43H132.257C135.097 64.43 137.209 63.8338 138.593 62.6415C139.977 61.4491 140.662 59.8237 140.649 57.7651C140.686 56.9051 140.528 56.0479 140.187 55.2575C139.846 54.4672 139.33 53.7642 138.679 53.2013C137.372 52.0802 135.379 51.5183 132.701 51.5155H129.704ZM129.704 74.8488V90.5591H132.627C137.476 90.5591 140.743 89.9479 142.429 88.7254C144.115 87.5029 144.956 85.7212 144.953 83.3803C144.953 80.7407 143.965 78.6575 141.989 77.1307C140.013 75.6039 136.723 74.8392 132.121 74.8364L129.704 74.8488Z" fill="white"/>
<path d="M199.749 56.3429H211.126V101.677H199.749V96.8831C197.821 98.7995 195.557 100.346 193.072 101.447C190.767 102.39 188.297 102.864 185.806 102.841C179.952 102.841 174.881 100.57 170.594 96.0279C166.307 91.486 164.178 85.8408 164.208 79.0923C164.208 72.0916 166.275 66.3546 170.409 61.8812C174.542 57.4078 179.564 55.1725 185.473 55.1752C188.106 55.1579 190.713 55.6828 193.133 56.7171C195.617 57.8147 197.864 59.3842 199.749 61.3385V56.3429ZM187.792 65.6762C186.15 65.6357 184.518 65.9472 183.006 66.5897C181.494 67.2322 180.137 68.1909 179.026 69.4013C176.702 71.8874 175.54 75.0767 175.54 78.969C175.54 82.8613 176.724 86.0834 179.092 88.6353C180.194 89.8545 181.545 90.8236 183.052 91.4775C184.56 92.1313 186.19 92.4548 187.833 92.4262C189.494 92.4702 191.145 92.1605 192.677 91.5175C194.209 90.8746 195.587 89.9131 196.719 88.697C199.07 86.2108 200.248 82.9531 200.25 78.9237C200.25 74.9821 199.073 71.7874 196.719 69.3396C194.364 66.8919 191.389 65.6707 187.792 65.6762Z" fill="white"/>
<path d="M222.625 56.3424H234.002V60.9884C236.578 58.812 238.908 57.3045 240.991 56.4657C243.03 55.626 245.213 55.193 247.418 55.1911C249.546 55.152 251.659 55.5495 253.627 56.3593C255.595 57.169 257.376 58.3737 258.86 59.8989C261.495 62.5632 262.813 66.5076 262.816 71.732V101.693H251.583V81.8218C251.583 76.411 251.34 72.8175 250.855 71.0413C250.483 69.4455 249.593 68.0182 248.322 66.9831C247.033 66.0275 245.457 65.5363 243.853 65.5893C241.651 65.5515 239.523 66.3815 237.928 67.9C236.284 69.4432 235.141 71.573 234.499 74.2894C234.165 75.7038 233.999 78.7697 234.002 83.487V101.677H222.625V56.3424Z" fill="white"/>
<path d="M275.212 39.6333H286.577V56.3428H293.324V66.1325H286.577V101.677H275.212V66.1325H269.378V56.3428H275.212V39.6333Z" fill="white"/>
<path d="M332.883 56.3429H344.26V101.677H332.883V96.8832C330.953 98.7998 328.689 100.347 326.201 101.447C323.898 102.39 321.429 102.864 318.94 102.841C313.086 102.841 308.015 100.57 303.728 96.0279C299.441 91.486 297.311 85.8408 297.338 79.0923C297.338 72.0917 299.405 66.3546 303.538 61.8812C307.672 57.4078 312.695 55.1725 318.607 55.1752C321.238 55.1576 323.844 55.6824 326.263 56.7171C328.749 57.8136 330.997 59.3832 332.883 61.3385V56.3429ZM320.922 65.6762C319.281 65.6363 317.649 65.9481 316.138 66.5906C314.627 67.2331 313.271 68.1914 312.16 69.4013C309.833 71.8875 308.671 75.0767 308.674 78.969C308.677 82.8613 309.859 86.0834 312.222 88.6353C313.325 89.855 314.676 90.8244 316.184 91.4783C317.693 92.1322 319.324 92.4554 320.967 92.4262C322.628 92.4702 324.279 92.1605 325.811 91.5175C327.343 90.8746 328.721 89.9131 329.853 88.697C332.204 86.2108 333.38 82.9531 333.38 78.9238C333.38 74.9821 332.204 71.7874 329.853 69.3396C327.501 66.8919 324.524 65.6707 320.922 65.6762Z" fill="white"/>
<path d="M354.51 38.8398H365.882V101.677H354.51V38.8398Z" fill="white"/>
<path d="M215.22 113.777H219.742C223.167 113.777 226.79 114.279 226.79 118.65C226.79 121.223 225.116 122.897 222.366 123.324L227.39 131.469H224.816L220.018 123.538H217.321V131.486H215.22V113.777ZM217.321 121.589H219.192C221.519 121.589 224.537 121.589 224.537 118.666C224.537 116.117 222.312 115.743 220.265 115.743H217.317L217.321 121.589Z" fill="white"/>
<path d="M240.083 129.344C238.705 131.12 237.057 131.77 234.886 131.77C231.21 131.77 228.961 129.019 228.961 125.623C228.961 122.001 231.51 119.476 234.96 119.476C238.249 119.476 240.506 121.725 240.506 125.598V126.223H231.07C231.111 127.217 231.529 128.158 232.24 128.854C232.95 129.55 233.899 129.949 234.894 129.969C235.612 130.004 236.328 129.861 236.978 129.551C237.627 129.242 238.19 128.777 238.615 128.197L240.083 129.344ZM238.409 124.574C238.331 122.601 237.032 121.285 234.886 121.285C232.739 121.285 231.313 122.613 231.062 124.574H238.409Z" fill="white"/>
<path d="M251.35 122.716C251.007 122.261 250.56 121.895 250.048 121.647C249.535 121.399 248.971 121.276 248.402 121.289C245.778 121.289 244.455 123.238 244.455 125.639C244.455 128.041 246.029 129.985 248.402 129.985C248.98 130.015 249.556 129.898 250.076 129.645C250.597 129.392 251.045 129.011 251.378 128.538L252.826 129.911C252.268 130.524 251.583 131.007 250.819 131.326C250.054 131.646 249.229 131.795 248.402 131.762C244.779 131.762 242.354 129.212 242.354 125.615C242.354 122.017 244.82 119.468 248.402 119.468C249.24 119.441 250.074 119.592 250.849 119.911C251.624 120.23 252.323 120.709 252.9 121.318L251.35 122.716Z" fill="white"/>
<path d="M254.572 122.547C254.572 121.474 254.474 120.549 254.474 119.776H256.324C256.324 120.401 256.373 121.051 256.373 121.701H256.423C256.949 120.549 258.396 119.476 260.32 119.476C260.591 119.47 260.861 119.512 261.118 119.599L260.995 121.573C260.654 121.474 260.301 121.424 259.946 121.425C257.57 121.425 256.521 123.098 256.521 125.771V131.47H254.572V122.547Z" fill="white"/>
<path d="M273.062 128.694C273.062 129.771 273.165 130.696 273.165 131.469H271.314C271.314 130.844 271.265 130.195 271.265 129.545H271.216C270.689 130.696 269.238 131.769 267.314 131.769C264.242 131.769 262.869 129.82 262.869 126.996V119.776H264.818V126.798C264.818 128.747 265.665 129.969 267.491 129.969C270.015 129.969 271.113 128.147 271.113 125.47V119.776H273.062V128.694Z" fill="white"/>
<path d="M282.659 121.425H279.209V127.272C279.209 128.772 279.234 129.969 280.956 129.969C281.556 129.97 282.148 129.829 282.683 129.558L282.757 131.334C282.034 131.619 281.261 131.759 280.484 131.745C277.708 131.745 277.26 130.244 277.26 127.823V121.425H274.711V119.78H277.26V116.454H279.209V119.78H282.659V121.425Z" fill="white"/>
<path d="M284.406 121.273C285.656 120.083 287.327 119.437 289.052 119.476C292.502 119.476 293.949 121.121 293.949 124.41V129.435C293.956 130.112 294.015 130.789 294.126 131.457H292.251C292.15 130.881 292.108 130.295 292.128 129.71H292.078C291.669 130.356 291.099 130.884 290.425 131.244C289.75 131.605 288.994 131.784 288.23 131.766C285.853 131.766 283.88 130.565 283.88 128.292C283.88 124.418 288.378 124.18 291.252 124.18H292V123.826C292 122.128 290.927 121.253 289.102 121.253C287.828 121.237 286.592 121.69 285.631 122.527L284.406 121.273ZM290.051 125.849C287.584 125.849 285.981 126.524 285.981 128.098C285.981 129.57 287.079 130.121 288.555 130.121C290.804 130.121 291.951 128.497 292 126.598V125.849H290.051Z" fill="white"/>
<path d="M297.025 122.547C297.025 121.474 296.922 120.549 296.922 119.776H298.772C298.772 120.401 298.821 121.051 298.821 121.7H298.871C299.397 120.549 300.848 119.476 302.773 119.476C305.293 119.476 306.095 120.899 306.473 121.7C307.324 120.323 308.397 119.476 310.174 119.476C313.52 119.476 314.618 121.351 314.618 124.373V131.47H312.669V124.48C312.669 122.856 312.098 121.281 309.82 121.281C308.175 121.281 306.798 122.634 306.798 124.731V131.478H304.849V124.858C304.849 122.284 304.199 121.281 302.6 121.281C300.075 121.281 298.978 123.107 298.978 125.779V131.478H297.029L297.025 122.547Z" fill="white"/>
<path d="M328.256 129.344C326.871 131.12 325.226 131.761 323.059 131.761C319.388 131.761 317.139 129.011 317.139 125.615C317.139 121.992 319.684 119.468 323.133 119.468C326.423 119.468 328.68 121.717 328.68 125.59V126.215H319.223C319.375 128.238 320.921 129.961 323.047 129.961C323.762 129.993 324.474 129.848 325.12 129.539C325.765 129.23 326.325 128.766 326.747 128.188L328.256 129.344ZM326.583 124.574C326.509 122.601 325.21 121.285 323.059 121.285C320.909 121.285 319.486 122.613 319.236 124.574H326.583Z" fill="white"/>
<path d="M331.205 122.547C331.205 121.474 331.106 120.549 331.106 119.776H332.953C332.953 120.401 333.002 121.051 333.002 121.7H333.039C333.561 120.549 335.012 119.476 336.937 119.476C340.008 119.476 341.385 121.425 341.385 124.25V131.47H339.453V124.447C339.453 122.498 338.602 121.273 336.776 121.273C334.252 121.273 333.154 123.098 333.154 125.771V131.47H331.205V122.547Z" fill="white"/>
<path d="M350.993 121.425H347.543V127.272C347.543 128.772 347.568 129.969 349.295 129.969C349.893 129.97 350.484 129.829 351.017 129.558L351.091 131.334C350.368 131.619 349.595 131.759 348.818 131.745C346.046 131.745 345.594 130.244 345.594 127.823V121.425H343.045V119.78H345.594V116.454H347.543V119.78H350.993V121.425Z" fill="white"/>
<path d="M358.464 119.476C362.062 119.476 364.71 121.976 364.71 125.623C364.71 129.27 362.062 131.761 358.464 131.761C354.867 131.761 352.219 129.262 352.219 125.615C352.219 121.968 354.867 119.476 358.464 119.476ZM358.464 129.969C360.989 129.969 362.613 128.073 362.613 125.623C362.613 123.172 360.989 121.273 358.464 121.273C355.94 121.273 354.316 123.172 354.316 125.623C354.316 128.073 355.94 129.969 358.464 129.969Z" fill="white"/>
</svg>
