<svg xmlns="http://www.w3.org/2000/svg" viewBox="0 0 92.82 94.21"><defs><style>.cls-1{fill:#fff;}</style></defs><title>qr-code-app-play-store</title><g id="Camada_2" data-name="Camada 2"><g id="Camada_1-2" data-name="Camada 1"><path class="cls-1" d="M0,0H92.82V94.21H0ZM62.45,12l-.05,2.51H59.88V17h-5v2.5H52.42V22H49.87V19.61H47.4V22H44.85V17h-9.7v-5h2.38V9.59h-5v2.3H30V7.05H27.56v2.5h-2.4V12h2.33v2.52H25.18V17h4.94v7.45h2.47V17l2.59-.05v2.53l2.47.12V22H35.23v7.15h2.43V26.74h2.5v2.57h2.55v2.44H47.4V34.3H44.83v2.52h-2.2V34.37H40.24v2.41h2.43v2.54H35.1v-5.1h2.45V31.86h-5v2.35H30.19v-5h2.35V26.84H20.44v2.5h2.34v2.47h-5v2.52H15.42v2.49h4.94l0,0v2.41h4.81V31.86h2.51v10h2.47v4.61h2.53V39.28l0,0,2.54,0v2.59h2.41v2.4l-2.32.11V49h2.43V46.53h2.5v2.58h2.51v5H40.23v2.47h2.43v2.55H35.1V54h2.43V51.54H32.59l0,0V49.16H27.56v2.33H25.05V49.08H22.84V46.64H20.45V49h2.43v2.58H20.41v2.45H25l.13,2.56h2.47v2.48H25.1v2.51H20.32V59.08h2.44v-2.4h-2.4v2.43h-5V54h2.46V49.13H15.29v2.33H12.78V46.61l-2.5-.14V39.32H7.79V36.74h5.06v-5l0,0h2.58V29.23h2.36V26.85H5.39V39.28H7.83v5.1H5.37v2.2H7.7V49.1H5.38v2.52H7.84V54l2.38.13v2.52H7.75v2.47H5.4v9.64H7.84V61.58h2.49V66.4h2.53v2.46H25.12v5h2.49v2.55H25.18V88.53h2.47V86.22h2.51v2.35h2.37V81.35h-5v-5h2.55v2.51h5v2.6h2.41v2.47H35.23v4.63h2.43V86.11h2.5v2.43h4.7V86.11h2.59v2.45h2.39L50,86.11h5v2.43H57.4V86.11h5.11v2.45h4.7V86.11H69.7v2.43h2.47V86.11h5l.13-2.24h2.45v4.66h4.76V86.19l2.38-.13V83.91H79.69V81.34h4.74V78.86h2.44v-5H84.44V71.37H82.2V68.86H79.7V64.13H77.19v-2.6H74.65V59.06h-5v-2.5H72.1V54.09H69.66V51.67h5.09V54h4.94V51.55h2.52V49h2.3V46.47h2.38v-2.1l-2.48-.12V41.83H82.2V39.36l2.32-.13V36.75h2.37V34.33l-2.48-.11V31.8h-2.2c0-.85,0-1.7,0-2.55h2.16V26.86H82.24v2.43H79.65V26.83H77.18v5h-5V29.25h2.44V26.86h-2.4v2.43H69.62V26.83H67.15v4.85H64.59V29.34H62.4V31.8H59.91V29.29H57.4V26.72h7.24V24.51h2.44V22.12h-2.4v2.43H62.55V19.46h4.53V16.94H62.49c-.05-.94-.09-1.73-.13-2.51h2.2V12H62.41V9.44H60V7H57.38V9.45l-2.49.05V7.06H52.42V9.5H47.37V7.06H42.75v2.4h4.66v2.59H45v2.48h2.5v2.4h2.47V12h2.5v2.42h4.92v-5H60V12ZM82.24,59.11H79.81V61.5H82.2V59.08h2.29V56.61h2.36v-5H84.53v5H82.24ZM22.61,71.55h-17v17h17ZM69.87,7.26v17h17v-17Zm-64.25,0V24.2h17V7.26ZM22.79,41.8h-5V39.4H15.29v2.35l-2.38.13v2.5h2.46v2.09h2.41l.14-2.21h4.87ZM84.4,61.66v2.39l-2.07.13v2.08h4.54v-4.6ZM27.51,24.46V19.61H25.19v4.85ZM40.19,14.38h2.38V12.07H40.19Z"/><path d="M79.69,51.55V54H74.75V51.67H69.66v2.42l0,0H64.6v2.46H62.41V54.1h-2.5V51.66H57.52v2.4H60V59h7.27V56.6H69.7l0,0v2.5h5v2.47h2.54v2.6l0,0H72.17l0,0V61.69H69.66v2.44l0,0-5,0V61.69H62.53v2.4h2.16l0,2.27,0,0H59.91v5.05l0,0H55V68.8h2.31V66.44H49.84v2.44h-5v5l0,0-2.27,0V68.8H40.16V66.32l0,0h4.69L45,64.05h2.41V61.58H50V64h9.88V61.55h-5V56.66H52.36v2.45h-5l0-2.55,0,0h2.55V54.05l0,0H55V49h4.92L60,46.6l2.5-.13V49l2.21.15V51.5h2.47v-5h2.48V44.3h2.51V41.79h2.44V39.4h-2.4v2.43H69.7v2.51h-5l-.15,2.17H62.46l-.05-4.72h4.78v-5l0,0H69.7V34.26l0,0h2.55l0,0v2.6h5.09v2.35h2.48v-5l0,0h2.54V31.76l0,0h2.2v2.42l2.48.11v2.42H84.52v2.48l-2.32.13v2.47l0,0H79.7v2.55l0,0h-5l-.14,2.3H72.28V49h5v2.55h2.51Z"/><path d="M54.93,86.11H50l-.12,2.45H47.45V86.11H44.86l0,0V83.88l0,0h2.58V81.31h5V78.85H54.8V76.39H44.85l0-2.55,0,0h2.58V71.42h2.39L50,73.77H60V71.34l0,0h4.77V66.32l0,0h5V64.09l0,0h2.55l0,0v2.16h5.06V64.09l0,0H79.7v4.73l0,0H77.31v5.08h2.44v5h4.72l0,0v2.48H79.69v2.57l0,0H77.28l-.13,2.24h-5l0,0v-2.3h2.47V81.37h2.44V79h-2.4v2.43l-7.57,0,0,0V78.82H62.38V76.46H59.91v5l0,0H54.89v4.78Zm12.32-17.2v7.38H74.6V68.91Z"/><path d="M32.64,39.28v7.17H30.11V41.84H27.64v-10H25.13v7.33H20.32V36.78h2.44v-2.4h-2.4v2.44H15.42V34.33h2.35V31.81h5V29.34H20.44v-2.5h12.1v2.37H30.19v5h2.36V31.86h5v2.36H35.1v5.1l0,0-2.54,0V36.88H30.2v2.4Z"/><path d="M7.79,39.32h2.49v7.15l2.5.14v4.85h2.51V49.13h2.48V54H15.31v5.1l0,0H10.29v2.55l0,0H7.84v7.19H5.4V59.13H7.75V56.66h2.47V54.14L7.84,54V51.62H5.38V49.1H7.7V46.58H5.37v-2.2H7.83v-5.1Z"/><path d="M22.61,71.55v17h-17v-17ZM8.08,73.91V86.19H20.2V73.91Z"/><path d="M69.87,7.26h17v17h-17ZM84.5,21.9V9.6H72.31V21.9Z"/><path d="M5.62,7.26h17V24.2h-17ZM8,21.88H20.2V9.62H8Z"/><path d="M22.84,49.08h2.21v2.41h2.51V49.16h5.07v2.42H30.19v4.9h2.4V51.54h4.94V54H35.1v5.08l0,0H32.56v7.25h-5l0,0v-2.3H30v-5H27.57l.05,0V56.63H25.15L25,54.07H20.41V51.62h2.47V49Z"/><path d="M64.64,24.51v2.21H57.4v2.57l0,0H54.86V26.86h-2.5v2.33H49.94l-.11-2.48H47.4v-2.2l0,0h2.55V22l0,0h2.55l0,0v2.43h2.55V22l0,0h2.59v2.41h2.36v-5h-5l0,0V17h5V14.47H62.4l0,0,.13,2.51h4.59v2.52H62.55v5.09h2.13Z"/><path d="M15.31,59.11h5l0,0v2.54H25.1l0,0v2.57H20.45v2.21h7.16l0,0v7.56l0,0H25.12v-5H12.86V66.4H10.33V61.58l0,0h2.6v2.54h2.37l.14,2.07h2.36V61.57H15.35v-2.5Z"/><path d="M7.83,39.28H5.39V26.85H17.75v2.38H15.39V31.8H12.81V29.37H7.87V34.2h2.48V31.76h2.5v5H7.79v2.58Z"/><path d="M35.1,39.32h7.57V36.78l0,0h2.2V34.3H47.4l0,0v5.09H44.9v5H40.12v2.23l0,0h-2.5V49H35.23v-4.6l2.32-.11v-2.4H35.14V39.28Z"/><path d="M35.19,16.92l-2.6.06,0,0V14.59H30.08V17l0,0H25.18V14.54h2.31V12H25.16V9.55h2.4V7.05H30v4.84h2.53V9.59h5v2.34H35.15v5Z"/><path d="M72.17,29.25v2.54l0,0H69.66V34.3l0,0H67.15v2.55l0,0-4.77,0V34.3H59.91l0-2.54,0,0H62.4V29.34h2.19v2.34h2.56V26.83h2.47v2.46h2.59Z"/><path d="M27.57,76.35v5h5v7.22H30.16V86.22H27.65v2.31H25.18V76.39h2.43Z"/><path d="M40.16,86.11h-2.5v2.45H35.23V83.93h2.32V81.46H35.14v-2.6l0,0,7.56,0v2.47l2.2.13v2.46l0,0H40.12v2.27Z"/><path d="M69.7,86.11H67.21v2.45h-4.7V86.11H57.4l0,0v-2.3H60V81.37l0,0H62.5v2.41h2.2V81.41h2.49l0,0v2.57h2.51v2.21Z"/><path d="M37.65,22V19.58l-2.47-.12V16.93l0,0h9.7V22l0,0H42.63v2.55l0,0H40.12l0,0V22H37.61Z"/><path d="M35.1,59.11h7.56l0,0v5.08H40.12v2.21l0,0h-2.6v2.45H35.21V64h2.34V61.57H35.14v-2.5Z"/><path d="M42.67,54.09v-5H40.16V46.53l0,0,4.78,0v2.59h2.53V51.6h2.44v2.49l0,0H47.36V56.6l0,0H44.86l0,0V54.05H42.63Z"/><path d="M35.14,78.86h-5V76.35l0,0h2.44V73.84H30.08l0,0V68.94h2.52v2.41h4.9v2.56H35.1v5Z"/><path d="M72.17,31.79h5v-5h2.47v2.46h2.59l0,0V31.8l0,0H79.7V34.3l0,0H72.17l0,0V31.76Z"/><path d="M22.79,41.8v2.46H17.92l-.14,2.21H15.37V44.38H12.91v-2.5l2.38-.13V39.4H17.8v2.4Z"/><path d="M47.37,9.5h5.05l0,0V12l0,0h-2.5v5H47.45v-2.4H45V12.05h2.46V9.46Z"/><path d="M47.4,31.75H42.71V29.31H40.16V26.74l0,0h2.54V24.51l0,0h2.26l0,0v4.8h2.5v2.48Z"/><path d="M79.69,83.91h7.18v2.15l-2.38.13v2.34H79.73V83.87Z"/><path d="M82.2,41.83h2.21v2.42l2.48.12v2.1H84.51V49h-2.3l0,0V46.57H79.7l0-2.27,0,0h2.54V41.79Z"/><path d="M40.16,26.74h-2.5v2.45H35.23V22h2.42l0,0v2.55h2.55l0,0v2.27Z"/><path d="M32.59,17v7.45H30.12V17l0,0h2.55Z"/><path d="M57.34,9.41v5H52.42V12l0,0h2.55V9.46l0,0,2.49-.05Z"/><path d="M84.4,61.66h2.47v4.6H82.33V64.18l2.07-.13Z"/><path d="M84.44,73.88h2.43v5H84.43l0,0V73.84Z"/><path d="M84.53,56.65v-5h2.32v5H84.49Z"/><path d="M27.51,24.46H25.19V19.61h2.32Z"/><path d="M47.41,9.46H42.75V7.06h4.62V9.5Z"/><path d="M44.86,86.11v2.43h-4.7V86.11l0,0h4.77Z"/><path d="M52.42,9.5V7.06h2.47V9.5l0,0H52.38Z"/><path d="M60,9.4H57.34l0,0V7H60v2.4Z"/><path d="M22.88,49H20.45v-2.4h2.39v2.44Z"/><path d="M82.21,49v2.52H79.69l0,0,0-2.54,2.55,0Z"/><path d="M42.66,56.56H40.23V54.09h2.44l0,0V56.6Z"/><path d="M57.4,86.11v2.43H54.93V86.11l0,0h2.55Z"/><path d="M69.66,54.09H72.1v2.47H69.66l0,0V54.05Z"/><path d="M20.36,59.11V56.68h2.4v2.4H20.32Z"/><path d="M72.17,86.11v2.43H69.7V86.11l0,0h2.55Z"/><path d="M25.1,61.62V59.11h2.52l-.05,0v2.51h-2.5Z"/><path d="M82.2,59.08V61.5H79.81V59.11h2.43Z"/><path d="M42.67,36.78H40.24V34.37h2.39v2.45Z"/><path d="M47.4,34.3V31.75l0,0h2.55v2.52l-2.55-.05Z"/><path d="M57.4,29.29h2.51V31.8l0,0H57.44V29.25Z"/><path d="M72.21,29.29V26.86h2.4v2.39H72.17Z"/><path d="M64.68,24.55V22.12h2.4v2.39H64.64Z"/><path d="M79.7,68.86h2.5v2.51l0,0h-2.5V68.83Z"/><path d="M27.61,76.39V73.84l0,0h2.55l0,0v2.55l0,0H27.57Z"/><path d="M44.85,22H47.4l0,0v2.55l0,0H44.86l0,0V22Z"/><path d="M52.42,22V19.53h2.51l0,0V22l0,0H52.38Z"/><path d="M47.4,22V19.61h2.47V22l0,0H47.36Z"/><path d="M40.19,14.38V12.07h2.38v2.31Z"/><path d="M62.45,12H60V9.4l0,0h2.46V12Z"/><path d="M42.66,59.11V56.56l0,0h2.26l0,0,0,2.55-2.26,0Z"/><path d="M62.41,12h2.15v2.43h-2.2l0,0c0-.84,0-1.67.05-2.51Z"/><path d="M82.24,29.29V26.86h2.12v2.39H82.2Z"/><path d="M82.24,59.11V56.64h2.29l0,0v2.47H82.2Z"/><path d="M82.2,71.37h2.24v2.51l0,0H82.24v-2.5Z"/><path class="cls-1" d="M47.36,34.26l2.55.05,0-.05v2.59H55v2.39l2.51.13v2.46h5l0,0c0,1.57,0,3.15.05,4.72l0,0L60,46.6,59.87,49H55v5.09H49.87V51.6H47.43V49.12H44.9V46.53l0,0h5L50,44.29h2.45v2.17h4.89V44.33H52.38V39.4H49.86v2.35l-2.52.13V44.3H44.86l0,0v-5h2.46Z"/><path class="cls-1" d="M30.12,73.88H27.57V66.32h5V59.07h2.58v2.5h2.41V64H35.21v4.73h2.35V66.32h2.6V68.8h2.46v5.08l0,0H40.23v2.55h2.43l0,0V78.9l0,0-7.56,0v-5h2.44V71.35h-4.9V68.94H30.12Z"/><path class="cls-1" d="M60,71.34v2.43H50l-.13-2.35H47.44v2.46H44.86v-5h5V66.44h7.49V68.8H55v2.54Z"/><path class="cls-1" d="M47.36,59.11h5V56.66h2.47v4.89h5V64H50V61.58H47.37l0,0V59.07Z"/><path class="cls-1" d="M69.7,54.05V56.6H67.22V59H60V54.06l0,0h2.5v2.41H64.6V54.05Z"/><path class="cls-1" d="M69.66,44.3v2.21H67.18v5H64.71V49.14L62.5,49V46.47l0,0h2.13l.15-2.17h5Z"/><path class="cls-1" d="M42.63,59.07l2.26,0,0,0v2.55H47.4l0,0v2.47H45l-.15,2.31H40.12V64.15h2.51Z"/><path class="cls-1" d="M72.17,34.26h7.57v5H77.26V36.86H72.17Z"/><path class="cls-1" d="M79.74,44.3l0,2.27,0,0H77.19v2.55l0,0h-5V46.6h2.34l.14-2.3Z"/><path class="cls-1" d="M64.68,66.32v5.05H59.91V66.32Z"/><path class="cls-1" d="M62.42,36.81l4.77,0v5H62.41l0,0V36.77Z"/><path class="cls-1" d="M77.23,64.09v2.16H72.17V64.09Z"/><path class="cls-1" d="M69.7,64.09v2.27h-5l0-2.27,0,0Z"/><path class="cls-1" d="M79.69,49l0,2.54H77.23V49l0,0h2.55Z"/><path class="cls-1" d="M60,54.06H57.52v-2.4h2.39V54.1Z"/><path class="cls-1" d="M47.36,56.6V54.05h2.55V56.6Z"/><path class="cls-1" d="M44.89,59.11l0-2.55H47.4l0,2.55,0,0H44.86Z"/><path class="cls-1" d="M82.24,41.79v2.55H79.7V41.79Z"/><path class="cls-1" d="M69.7,44.34V41.83h2.51l0,0V44.3H69.66Z"/><path class="cls-1" d="M72.21,41.83V39.4h2.4v2.39H72.17Z"/><path class="cls-1" d="M67.15,36.81V34.26H69.7v2.55Z"/><path class="cls-1" d="M72.21,64.13H69.66V61.69h2.55Z"/><path class="cls-1" d="M79.7,34.3V31.76h2.54V34.3Z"/><path class="cls-1" d="M72.21,31.76V34.3H69.66V31.76Z"/><path class="cls-1" d="M64.69,64.09H62.53v-2.4h2.12v2.44Z"/><path class="cls-1" d="M44.89,73.84l0,2.55,0,0H42.63l0,0V73.84l0,0Z"/><path class="cls-1" d="M44.86,83.92V81.46l-2.2-.13V78.86l0,0h2.26V76.35l0,0H54.8v2.46H52.46v2.46h-5v2.61Z"/><path class="cls-1" d="M67.25,68.91H74.6v7.38H67.25Zm4.92,2.53H69.78v2.32h2.39Z"/><path class="cls-1" d="M82.24,71.34v2.5h2.23V78.9H79.75v-5H77.31V68.83h2.43v2.51Z"/><path class="cls-1" d="M67.19,81.41H64.7v2.41H62.5V81.41H59.91v-5h2.47v2.36h4.81Z"/><path class="cls-1" d="M72.21,86.15H69.66V83.94H67.15V81.37l7.57,0,0,0v2.48H72.21Z"/><path class="cls-1" d="M57.44,86.15H54.89V81.37H60v2.48H57.44Z"/><path class="cls-1" d="M44.89,86.15H40.12V83.88h4.77Z"/><path class="cls-1" d="M74.72,81.41V79h2.4v2.39H74.68Z"/><path class="cls-1" d="M32.64,39.28H30.2v-2.4h2.4v2.44Z"/><path class="cls-1" d="M20.36,36.82V34.38h2.4v2.4H20.32Z"/><path class="cls-1" d="M15.35,59.07v2.5h2.41v4.66H15.4l-.14-2.07H12.89V61.62h-2.6V59.07Z"/><path class="cls-1" d="M8.08,73.91H20.2V86.19H8.08Zm9.69,2.55H10.46V83.7h7.31Z"/><path class="cls-1" d="M84.5,21.9H72.31V9.6H84.5Zm-9.75-2.47H82V12.15H74.75Z"/><path class="cls-1" d="M8,21.88V9.62H20.2V21.88Zm2.44-9.8v7.34H17.7V12.08Z"/><path class="cls-1" d="M25.07,61.58h2.5V59.07H30v5h-2.4v2.3H20.45V64.15h4.62Z"/><path class="cls-1" d="M32.59,51.54v4.94h-2.4v-4.9h2.44Z"/><path class="cls-1" d="M44.86,24.51H47.4v2.2h2.43l.11,2.48h2.42V26.86h2.5v2.39h2.58v2.51H60l0,2.54,0,0H54.84V31.85H52.37v2.41h-2.5l0,.05V31.79H47.36V29.31h-2.5Z"/><path class="cls-1" d="M54.89,22V19.49h5v5H57.48V22Z"/><path class="cls-1" d="M52.38,22h2.55v2.43H52.38Z"/><path class="cls-1" d="M47.36,22h2.55v2.55H47.36Z"/><path class="cls-1" d="M12.85,31.76h-2.5V34.2H7.87V29.37h4.94V31.8Z"/><path class="cls-1" d="M44.9,46.53l-4.78,0V44.34H44.9l0,0v2.27Z"/><path class="cls-1" d="M32.63,17H30.08V14.59h2.55Z"/><path class="cls-1" d="M59.91,34.3h2.51v2.51l0,0H60V34.26Z"/><path class="cls-1" d="M40.16,24.55H37.61V22h2.55Z"/><path class="cls-1" d="M44.89,22v2.55H42.63V22Z"/><path class="cls-1" d="M40.12,26.78V24.51h2.54v2.27Z"/><path class="cls-1" d="M44.89,56.6H42.63V54.05h2.26Z"/><path class="cls-1" d="M30.08,76.39V73.84h2.44v2.55Z"/><path class="cls-1" d="M52.38,9.46h2.55V12H52.38Z"/><path class="cls-1" d="M82.24,49.08l-2.55,0,0,0V46.53l0,0h2.54Z"/><path d="M60,34.26v2.51h2.5v5.06h-5V39.37L55,39.24V36.85H49.87V34.26h2.5V31.85h2.47v2.41Z"/><path d="M44.86,46.57V44.3h2.48V41.88l2.52-.13V39.4h2.52v4.93l0,0H50l-.14,2.28Z"/><path d="M52.38,44.33h4.93v2.13H52.42V44.29Z"/><path d="M42.66,73.84v2.55H40.23V73.84Z"/><path d="M44.89,76.35V78.9H42.63V76.35Z"/><path d="M44.86,59.07H47.4v2.55H44.86Z"/><path d="M79.74,46.53v2.55H77.19V46.53Z"/><path d="M72.17,71.44v2.32H69.78V71.44Z"/><path d="M17.77,76.46V83.7H10.46V76.46Z"/><path d="M74.75,19.43V12.15H82v7.28Z"/><path d="M10.45,12.08H17.7v7.34H10.45Z"/></g></g></svg>